<svg width="54" height="54" viewBox="0 0 54 54" fill="none" xmlns="http://www.w3.org/2000/svg">
<path d="M23.9469 32.7852L14.9137 28.0879V26.9844L23.9469 22.2871V23.625L16.4371 27.5312L23.9469 31.4473V32.7852ZM38.018 32.7852L28.9848 28.0879V26.9844L38.018 22.2871V23.625L30.5082 27.5312L38.018 31.4473V32.7852Z" fill="#CDCDCD"/>
<path d="M27 52C13.1929 52 2 40.8071 2 27H0C0 41.9117 12.0883 54 27 54V52ZM52 27C52 40.8071 40.8071 52 27 52V54C41.9117 54 54 41.9117 54 27H52ZM27 2C40.8071 2 52 13.1929 52 27H54C54 12.0883 41.9117 0 27 0V2ZM27 0C12.0883 0 0 12.0883 0 27H2C2 13.1929 13.1929 2 27 2V0Z" fill="#CDCDCD"/>
</svg>
