<svg width="54" height="54" viewBox="0 0 54 54" fill="none" xmlns="http://www.w3.org/2000/svg">
<path d="M31.041 28.0879L22.0078 32.7852V31.4473L29.5176 27.5312L22.0078 23.625V22.2871L31.041 26.9844V28.0879Z" fill="#292929"/>
<path d="M27 52C13.1929 52 2 40.8071 2 27H0C0 41.9117 12.0883 54 27 54V52ZM52 27C52 40.8071 40.8071 52 27 52V54C41.9117 54 54 41.9117 54 27H52ZM27 2C40.8071 2 52 13.1929 52 27H54C54 12.0883 41.9117 0 27 0V2ZM27 0C12.0883 0 0 12.0883 0 27H2C2 13.1929 13.1929 2 27 2V0Z" fill="#F1CDB3"/>
</svg>
